<?xml version="1.0" encoding="UTF-8" standalone="no"?>
<!-- Created with Inkscape (http://www.inkscape.org/) -->

<svg
   version="1.1"
   id="svg2"
   width="16"
   height="16"
   viewBox="0 0 16 16"
   sodipodi:docname="1.png"
   inkscape:version="1.2.2 (b0a8486541, 2022-12-01)"
   xmlns:inkscape="http://www.inkscape.org/namespaces/inkscape"
   xmlns:sodipodi="http://sodipodi.sourceforge.net/DTD/sodipodi-0.dtd"
   xmlns="http://www.w3.org/2000/svg"
   xmlns:svg="http://www.w3.org/2000/svg">
  <defs
     id="defs6" />
  <sodipodi:namedview
     id="namedview4"
     pagecolor="#ffffff"
     bordercolor="#000000"
     borderopacity="0.25"
     inkscape:showpageshadow="2"
     inkscape:pageopacity="0.0"
     inkscape:pagecheckerboard="0"
     inkscape:deskcolor="#d1d1d1"
     showgrid="false"
     inkscape:zoom="0.43212893"
     inkscape:cx="263.81015"
     inkscape:cy="274.22371"
     inkscape:window-width="1440"
     inkscape:window-height="836"
     inkscape:window-x="0"
     inkscape:window-y="27"
     inkscape:window-maximized="1"
     inkscape:current-layer="g8" />
  <g
     inkscape:groupmode="layer"
     inkscape:label="Image"
     id="g8">
    <path
       style="fill:#000000;stroke-width:0.0315053"
       d="m 2.1164055,12.716066 -0.8979,-0.01712 -0.22026999,-0.110268 c -0.4339,-0.217215 -0.77891,-0.667545 -0.86618,-1.13061 -0.0423,-0.224461 -0.043,-6.4726658 -7.3e-4,-6.8401138 0.0414,-0.359985 0.16623,-0.611905 0.43882,-0.885469 0.21443,-0.215186 0.36508,-0.308871 0.65964999,-0.410219 0.16575,-0.05702 0.38586,-0.05912 6.19586,-0.05912 3.9035605,0 6.0837505,0.01115 6.1937205,0.03167 0.44117,0.08234 0.88267,0.431355 1.0825,0.855753 0.12571,0.266978 0.17356,0.522698 0.1739,0.92929 l 2.9e-4,0.288711 0.36011,0.01059 c 0.38952,0.01145 0.45655,0.03691 0.59885,0.227496 0.0642,0.08601 0.065,0.113041 0.065,2.398004 0,2.2962708 -4.2e-4,2.3115768 -0.066,2.3999688 -0.13109,0.176758 -0.27696,0.22964 -0.63502,0.230215 l -0.32295,5.2e-4 -0.002,0.244165 c -0.003,0.471067 -0.0448,0.712367 -0.16654,0.968805 -0.15205,0.320175 -0.3943,0.562158 -0.72753,0.726714 -0.24587,0.121419 -0.25732,0.123759 -0.70886,0.14478 -0.53229,0.02478 -9.8221805,0.02165 -11.1549705,-0.0038 z M 13.526326,11.624191 c 0.0461,-0.0233 0.12594,-0.09348 0.17744,-0.155963 l 0.0936,-0.1136 0.0126,-0.702064 c 0.0122,-0.6834868 0.0146,-0.7050468 0.0898,-0.8147818 0.12647,-0.184575 0.27183,-0.245686 0.63154,-0.265508 l 0.31317,-0.01726 v -1.551179 -1.551179 l -0.30638,-0.02297 c -0.16851,-0.01263 -0.34218,-0.03649 -0.38594,-0.05301 -0.0913,-0.03446 -0.24236,-0.169933 -0.29222,-0.262022 -0.0193,-0.0357 -0.0429,-0.363451 -0.0546,-0.760815 -0.0228,-0.770047 -0.0258,-0.781898 -0.23878,-0.944385 l -0.11352,-0.08658 -4.0064305,-0.01412 c -2.20355,-0.0078 -4.89754,-0.0035 -5.98665,0.0095 l -1.9802,0.02366 -0.11171,0.09808 c -0.20809,0.182706 -0.19684,-0.0211 -0.19684,3.564636 0,3.5685438 -0.0102,3.3743328 0.18721,3.5600868 l 0.10045,0.09452 2.3372,0.01721 c 1.28547,0.0095 3.98178,0.01111 5.99181,0.0036 2.9776605,-0.01106 3.6701305,-0.02142 3.7384105,-0.05594 z M 6.1490655,10.871646 v -0.36231 h 0.66161 0.66161 V 8.0970662 c 0,-2.282923 -0.003,-2.411352 -0.0551,-2.395139 -0.0303,0.0094 -0.32451,0.08169 -0.65374,0.160605 -0.32922,0.07891 -0.6234,0.151089 -0.65373,0.160394 -0.0505,0.01549 -0.0551,-0.01649 -0.0551,-0.379019 0,-0.217766 0.005,-0.395938 0.0106,-0.395938 0.006,0 0.32714,-0.07089 0.71403,-0.157526 0.65193,-0.145993 0.73419,-0.157526 1.12359,-0.157526 h 0.42016 v 2.78821 2.7882088 h 0.66161 0.66161 v 0.36231 0.36231 h -1.74854 -1.74854 z"
       id="path62" />
  </g>
</svg>
