<?xml version="1.0" encoding="UTF-8" standalone="no"?>
<!-- Created with Inkscape (http://www.inkscape.org/) -->

<svg
   version="1.1"
   id="svg278"
   width="16"
   height="16"
   viewBox="0 0 16 16"
   sodipodi:docname="2-symbolic.svg"
   inkscape:version="1.2.2 (b0a8486541, 2022-12-01)"
   xmlns:inkscape="http://www.inkscape.org/namespaces/inkscape"
   xmlns:sodipodi="http://sodipodi.sourceforge.net/DTD/sodipodi-0.dtd"
   xmlns="http://www.w3.org/2000/svg"
   xmlns:svg="http://www.w3.org/2000/svg">
  <defs
     id="defs282" />
  <sodipodi:namedview
     id="namedview280"
     pagecolor="#ffffff"
     bordercolor="#000000"
     borderopacity="0.25"
     inkscape:showpageshadow="2"
     inkscape:pageopacity="0.0"
     inkscape:pagecheckerboard="0"
     inkscape:deskcolor="#d1d1d1"
     showgrid="false"
     inkscape:zoom="30.87483"
     inkscape:cx="8.000044"
     inkscape:cy="8.0486272"
     inkscape:window-width="1440"
     inkscape:window-height="836"
     inkscape:window-x="0"
     inkscape:window-y="27"
     inkscape:window-maximized="1"
     inkscape:current-layer="g284" />
  <g
     inkscape:groupmode="layer"
     inkscape:label="Image"
     id="g284">
    <path
       style="fill:#000000;stroke-width:0.0315054"
       d="m 2.1164055,12.716022 -0.8979,-0.0171 -0.22026999,-0.11026 c -0.4339,-0.21722 -0.77891,-0.66755 -0.86618,-1.13062 -0.0423,-0.22446 -0.043,-6.4726801 -7.3e-4,-6.8401201 0.0414,-0.35999 0.16623,-0.61191 0.43883,-0.88548 0.21442,-0.21518 0.36507,-0.30887 0.65963999,-0.41021 0.16575,-0.057 0.38586,-0.0591 6.19588,-0.0591 3.9035605,0 6.0837605,0.0112 6.1937205,0.0317 0.44117,0.0823 0.88267,0.43136 1.0825,0.85576 0.12571,0.26697 0.17357,0.52269 0.1739,0.92929 l 2.7e-4,0.28871 0.36012,0.0106 c 0.38951,0.0114 0.45654,0.0369 0.59884,0.22749 0.0642,0.086 0.065,0.11304 0.065,2.39801 0,2.2962801 -4.2e-4,2.3115801 -0.066,2.3999801 -0.13109,0.17675 -0.27696,0.22964 -0.63502,0.23021 l -0.32295,5.2e-4 -0.002,0.24417 c -0.003,0.47106 -0.0448,0.71237 -0.16653,0.9688 -0.15206,0.32018 -0.39431,0.56216 -0.72753,0.72672 -0.24588,0.12142 -0.25733,0.12376 -0.70887,0.14478 -0.53229,0.0248 -9.8222005,0.0216 -11.1550005,-0.004 z m 11.4099505,-1.09188 c 0.0461,-0.0233 0.12594,-0.0935 0.17744,-0.15596 l 0.0936,-0.1136 0.0126,-0.70206 c 0.0122,-0.6834901 0.0146,-0.7050501 0.0898,-0.8147901 0.12648,-0.18457 0.27184,-0.24568 0.63155,-0.26551 l 0.31317,-0.0173 v -1.55118 -1.55119 l -0.30638,-0.023 c -0.16851,-0.0126 -0.34218,-0.0365 -0.38594,-0.053 -0.0913,-0.0344 -0.24236,-0.16993 -0.29222,-0.26202 -0.0193,-0.0357 -0.0429,-0.36345 -0.0546,-0.76081 -0.0228,-0.77005 -0.0258,-0.7819 -0.23879,-0.94439 l -0.11351,-0.0866 -4.0064505,-0.0141 c -2.20354,-0.008 -4.89754,-0.003 -5.98665,0.01 l -1.98021,0.0237 -0.11171,0.0981 c -0.20809,0.1827 -0.19684,-0.0211 -0.19684,3.56464 0,3.5685501 -0.0102,3.3743401 0.18721,3.5600901 l 0.10045,0.0945 2.33721,0.0172 c 1.28547,0.009 3.98179,0.0111 5.99182,0.004 2.9776705,-0.0111 3.6701305,-0.0214 3.7384205,-0.0559 z m -7.8806405,-0.74466 7.2e-4,-0.35444 0.72743,-0.7718801 c 1.42416,-1.51119 1.81241,-1.96734 2.0134,-2.36549 0.36349,-0.72006 0.18413,-1.47638 -0.41374,-1.74469 -0.47236,-0.21198 -1.22508,-0.10636 -1.99473,0.27992 l -0.27252,0.13677 0.009,-0.42414 0.009,-0.42415 0.22054,-0.0952 c 0.59261,-0.25568 1.37358,-0.36315 1.93078,-0.26568 0.85253,0.14914 1.39149,0.63982 1.54202,1.40392 0.0967,0.49082 -0.026,0.99752 -0.36712,1.51644 -0.24337,0.37017 -0.72947,0.91945 -1.89791,2.14457 -0.29173,0.3058701 -0.53041,0.5646001 -0.53041,0.5749701 0,0.0104 0.64507,0.0188 1.43349,0.0188 h 1.43349 v 0.36231 0.36231 h -1.92182 -1.92182 l 7.2e-4,-0.35443 z"
       id="path288" />
  </g>
</svg>
