<?xml version="1.0" encoding="UTF-8" standalone="no"?>
<!-- Created with Inkscape (http://www.inkscape.org/) -->

<svg
   version="1.1"
   id="svg2"
   width="16"
   height="16"
   viewBox="0 0 16 16"
   sodipodi:docname="A-symbolic.svg"
   inkscape:version="1.2.2 (b0a8486541, 2022-12-01)"
   xmlns:inkscape="http://www.inkscape.org/namespaces/inkscape"
   xmlns:sodipodi="http://sodipodi.sourceforge.net/DTD/sodipodi-0.dtd"
   xmlns="http://www.w3.org/2000/svg"
   xmlns:svg="http://www.w3.org/2000/svg">
  <defs
     id="defs6" />
  <sodipodi:namedview
     id="namedview4"
     pagecolor="#ffffff"
     bordercolor="#000000"
     borderopacity="0.25"
     inkscape:showpageshadow="2"
     inkscape:pageopacity="0.0"
     inkscape:pagecheckerboard="0"
     inkscape:deskcolor="#d1d1d1"
     showgrid="false"
     inkscape:zoom="0.43212893"
     inkscape:cx="263.81015"
     inkscape:cy="274.22371"
     inkscape:window-width="1440"
     inkscape:window-height="836"
     inkscape:window-x="0"
     inkscape:window-y="27"
     inkscape:window-maximized="1"
     inkscape:current-layer="g8" />
  <g
     inkscape:groupmode="layer"
     inkscape:label="Image"
     id="g8">
    <path
       style="fill:#000000;stroke-width:0.0315054"
       d="m 2.1164055,12.716022 -0.89789,-0.0171 -0.22026999,-0.11026 c -0.43391,-0.21722 -0.77891,-0.66755 -0.86619,-1.13062 -0.0423,-0.22446 -0.043,-6.4726801 -7.3e-4,-6.8401201 0.0414,-0.35999 0.16623,-0.61191 0.43883,-0.88548 0.21442,-0.21518 0.36507,-0.30887 0.65964999,-0.41021 0.16574,-0.057 0.38585,-0.0591 6.19587,-0.0591 3.9035705,0 6.0837605,0.0111 6.1937305,0.0317 0.44117,0.0823 0.88266,0.43136 1.0825,0.85576 0.12571,0.26697 0.17356,0.52269 0.17389,0.92929 l 2.7e-4,0.28871 0.36012,0.0106 c 0.38951,0.0114 0.45654,0.0369 0.59884,0.22749 0.0642,0.086 0.065,0.11304 0.065,2.39801 0,2.2962801 -4.2e-4,2.3115801 -0.066,2.3999801 -0.13109,0.17675 -0.27696,0.22964 -0.63502,0.23021 l -0.32294,5.2e-4 -0.002,0.24417 c -0.003,0.47106 -0.0448,0.71237 -0.16654,0.9688 -0.15205,0.32018 -0.39431,0.56216 -0.72753,0.72672 -0.24587,0.12142 -0.25733,0.12376 -0.70887,0.14478 -0.53229,0.0248 -9.8221905,0.0216 -11.1549905,-0.004 z m 11.4099505,-1.09188 c 0.0461,-0.0233 0.12594,-0.0935 0.17744,-0.15596 l 0.0936,-0.1136 0.0126,-0.70206 c 0.0122,-0.6834901 0.0146,-0.7050501 0.0898,-0.8147901 0.12647,-0.18457 0.27183,-0.24568 0.63154,-0.26551 l 0.31317,-0.0172 v -1.55118 -1.55119 l -0.30638,-0.023 c -0.16851,-0.0126 -0.34218,-0.0365 -0.38594,-0.053 -0.0913,-0.0345 -0.24236,-0.16993 -0.29222,-0.26202 -0.0193,-0.0357 -0.0429,-0.36345 -0.0546,-0.76081 -0.0228,-0.77005 -0.0258,-0.7819 -0.23878,-0.94439 l -0.11352,-0.0866 -4.0064405,-0.0141 c -2.20355,-0.008 -4.89755,-0.003 -5.98666,0.01 l -1.98021,0.0237 -0.11171,0.0981 c -0.20809,0.1827 -0.19683,-0.0211 -0.19683,3.56464 0,3.5685501 -0.0102,3.3743401 0.1872,3.5600901 l 0.10045,0.0945 2.33721,0.0172 c 1.28547,0.009 3.98179,0.0111 5.99182,0.004 2.9776705,-0.0111 3.6701405,-0.0214 3.7384205,-0.0559 z m -8.3422205,-0.43832 c 0.0101,-0.0264 0.44674,-1.4445201 0.97021,-3.1512601 l 0.95177,-3.10317 0.51919,0.009 0.51919,0.009 0.9384,3.05601 c 0.51613,1.68081 0.9472805,3.0950001 0.9581305,3.1426501 l 0.0197,0.0866 h -0.4357805 -0.43578 l -0.19737,-0.70099 c -0.10855,-0.38555 -0.21196,-0.7541601 -0.22981,-0.8191401 l -0.0324,-0.11814 h -1.10936 -1.10937 l -0.18592,0.6694801 c -0.10226,0.36822 -0.20547,0.73683 -0.22936,0.81914 l -0.0434,0.14965 h -0.44322 c -0.38444,0 -0.44078,-0.006 -0.42477,-0.0481 z m 3.32784,-2.3045701 c 0,-0.0455 -0.8628,-3.11492 -0.88204,-3.13785 -0.0112,-0.0134 -0.21572,0.67308 -0.45439,1.52548 -0.23867,0.8524 -0.44118,1.56868 -0.45003,1.59173 -0.0131,0.0343 0.14812,0.0419 0.88519,0.0419 0.4957,0 0.90127,-0.01 0.90127,-0.0213 z"
       id="path62" />
  </g>
</svg>
